<svg width="15" height="15" viewBox="0 0 15 15" fill="none" xmlns="http://www.w3.org/2000/svg">
<path d="M9.15263 7.5L14.7613 1.8911C14.9155 1.7367 15.0007 1.53071 15.0009 1.31106C15.0009 1.09129 14.9158 0.885058 14.7613 0.730901L14.2698 0.239528C14.1153 0.0847616 13.9093 0 13.6894 0C13.4698 0 13.2639 0.0847616 13.1093 0.239528L7.5007 5.84806L1.89182 0.239528C1.73755 0.0847616 1.53144 0 1.31167 0C1.09214 0 0.88603 0.0847616 0.731752 0.239528L0.240015 0.730901C-0.0800049 1.05092 -0.0800049 1.57144 0.240015 1.8911L5.84877 7.5L0.240015 13.1087C0.085615 13.2633 0.000609793 13.4693 0.000609793 13.6889C0.000609793 13.9086 0.085615 14.1146 0.240015 14.2691L0.73163 14.7605C0.885908 14.9151 1.09214 15 1.31154 15C1.53131 15 1.73742 14.9151 1.8917 14.7605L7.50058 9.15181L13.1092 14.7605C13.2637 14.9151 13.4697 15 13.6893 15H13.6895C13.9091 15 14.1151 14.9151 14.2697 14.7605L14.7611 14.2691C14.9154 14.1147 15.0006 13.9086 15.0006 13.6889C15.0006 13.4693 14.9154 13.2633 14.7611 13.1088L9.15263 7.5Z" fill="#48423D"/>
</svg>
