<svg width="21" height="20" viewBox="0 0 21 20" fill="none" xmlns="http://www.w3.org/2000/svg">
<path d="M20.4265 18.1095L14.0172 11.7002C14.9108 10.4843 15.3961 9.01656 15.4036 7.50762C15.4086 6.0671 14.9856 4.65757 14.1883 3.45776C13.3911 2.25796 12.2555 1.32194 10.9256 0.768396C9.59566 0.214856 8.1313 0.0687333 6.71821 0.348559C5.30512 0.628384 4.00696 1.32155 2.98835 2.34016C1.96975 3.35877 1.27658 4.65693 0.996752 6.07001C0.716927 7.4831 0.863049 8.94746 1.41659 10.2774C1.97013 11.6073 2.90615 12.7429 4.10596 13.5402C5.30576 14.3374 6.7153 14.7604 8.15582 14.7554C9.67043 14.7514 11.1445 14.2659 12.365 13.369L18.7743 19.7783L20.4265 18.1095ZM3.09977 7.50762C3.08826 6.50923 3.37359 5.52992 3.91955 4.69395C4.46552 3.85798 5.2475 3.20303 6.16629 2.8122C7.08508 2.42138 8.09926 2.31229 9.08015 2.49878C10.061 2.68528 10.9644 3.15894 11.6757 3.85969C12.3869 4.56043 12.874 5.45666 13.0751 6.43466C13.2761 7.41266 13.1822 8.42836 12.8051 9.35286C12.428 10.2774 11.7847 11.069 10.957 11.6274C10.1292 12.1857 9.15427 12.4856 8.15582 12.4889C6.82575 12.4956 5.54718 11.9753 4.59969 11.0418C3.65221 10.1083 3.11292 8.83764 3.09977 7.50762Z" fill="#575757"/>
</svg>
